<svg width="512" height="512" viewBox="0 0 512 512" fill="none" xmlns="http://www.w3.org/2000/svg">
<path d="M126.01 134.216C126.01 134.216 115.747 280.473 133.708 294.158C151.669 307.843 165.354 305.277 180.75 302.711C196.145 300.145 228.647 279.618 236.345 261.656C244.042 243.695 225.226 154.743 236.345 140.203C247.464 125.663 301.348 110.267 292.795 100.004C284.242 89.7401 269.702 76.9106 254.306 77.7658C238.911 78.6211 194.435 105.136 180.75 122.242C167.065 139.348 180.75 248.827 180.75 248.827" stroke="black" stroke-width="19.1167" stroke-linecap="round"/>
<path d="M387.236 304.678C387.236 304.678 397.499 158.421 379.538 144.736C361.576 131.051 347.892 133.617 332.496 136.183C317.101 138.749 284.599 159.276 276.901 177.237C269.204 195.199 288.02 284.15 276.901 298.69C265.782 313.231 211.898 328.626 220.451 338.89C229.004 349.153 243.544 361.983 258.94 361.128C274.335 360.272 318.811 333.758 332.496 316.652C346.181 299.546 332.496 190.067 332.496 190.067" stroke="black" stroke-width="19.1167" stroke-linecap="round"/>
<path d="M146.593 440.384H136.513L154.866 388.253H166.524L184.902 440.384H174.822L160.899 398.944H160.491L146.593 440.384ZM146.924 419.944H174.415V427.529H146.924V419.944ZM191.769 440.384V388.253H201.212V432.467H224.172V440.384H191.769ZM232.369 440.384V388.253H251.918C255.922 388.253 259.282 389 261.998 390.493C264.73 391.986 266.792 394.04 268.183 396.653C269.592 399.249 270.296 402.202 270.296 405.511C270.296 408.854 269.592 411.824 268.183 414.42C266.775 417.017 264.696 419.061 261.947 420.555C259.198 422.031 255.812 422.769 251.79 422.769H238.834V415.006H250.518C252.859 415.006 254.777 414.598 256.27 413.784C257.764 412.969 258.867 411.849 259.579 410.424C260.309 408.998 260.674 407.361 260.674 405.511C260.674 403.661 260.309 402.032 259.579 400.624C258.867 399.215 257.755 398.121 256.245 397.34C254.752 396.543 252.825 396.144 250.467 396.144H241.812V440.384H232.369ZM278.499 440.384V388.253H287.942V410.322H312.099V388.253H321.568V440.384H312.099V418.238H287.942V440.384H278.499ZM338.533 440.384H328.453L346.806 388.253H358.464L376.842 440.384H366.762L352.839 398.944H352.431L338.533 440.384ZM338.864 419.944H366.355V427.529H338.864V419.944Z" fill="black"/>
</svg>
