<?xml version="1.0" encoding="UTF-8" standalone="no"?>
<!DOCTYPE svg PUBLIC "-//W3C//DTD SVG 1.1//EN" "http://www.w3.org/Graphics/SVG/1.1/DTD/svg11.dtd">
<svg width="100%" height="100%" viewBox="0 0 40 40" version="1.1" xmlns="http://www.w3.org/2000/svg" xmlns:xlink="http://www.w3.org/1999/xlink" xml:space="preserve" xmlns:serif="http://www.serif.com/" style="fill-rule:evenodd;clip-rule:evenodd;stroke-linejoin:round;stroke-miterlimit:2;">
    <path d="M40,10L40,30C40,35.519 35.519,40 30,40L10,40C4.481,40 0,35.519 0,30L0,10C0,4.481 4.481,0 10,0L30,0C35.519,0 40,4.481 40,10Z"/>
    <path d="M31.696,7.114C32.831,7.114 33.751,8.034 33.751,9.169C33.751,10.304 32.831,11.224 31.696,11.224L29.883,11.224C29.749,11.224 29.641,11.116 29.641,10.982L29.641,9.169C29.641,8.034 30.561,7.114 31.696,7.114Z" style="fill:white;fill-rule:nonzero;"/>
    <path d="M20.176,19.08L27.93,11.386C28.076,11.241 27.994,10.95 27.806,10.95L23.633,10.95C23.588,10.95 23.544,10.968 23.508,11.004L15.153,19.291C15.023,19.419 14.83,19.305 14.83,19.1L14.83,11.195C14.83,11.059 14.741,10.95 14.632,10.95L11.757,10.95C11.648,10.95 11.559,11.059 11.559,11.195L11.559,28.239C11.559,28.375 11.648,28.484 11.757,28.484L14.632,28.484C14.741,28.484 14.83,28.375 14.83,28.239L14.83,24.766C14.83,24.692 14.857,24.621 14.904,24.575L17.494,22.005C17.557,21.943 17.643,21.934 17.713,21.98L24.641,27.079C25.776,27.842 27.044,28.311 28.331,28.45C28.446,28.462 28.545,28.348 28.545,28.205L28.545,24.934C28.545,24.809 28.47,24.707 28.369,24.692C27.611,24.573 26.872,24.28 26.204,23.83L20.205,19.487C20.081,19.404 20.065,19.189 20.176,19.08Z" style="fill:white;fill-rule:nonzero;"/>
</svg>
